<?xml version="1.0" encoding="UTF-8" standalone="no"?>
<!-- Created with Inkscape (http://www.inkscape.org/) -->

<svg width="720" height="600" viewBox="0 0 190.5 158.75" version="1.1" id="svg1" xml:space="preserve" inkscape:export-filename="PIM.svg" inkscape:export-xdpi="96" inkscape:export-ydpi="96" sodipodi:docname="PIM.svg" xmlns:inkscape="http://www.inkscape.org/namespaces/inkscape" xmlns:sodipodi="http://sodipodi.sourceforge.net/DTD/sodipodi-0.dtd" xmlns="http://www.w3.org/2000/svg" xmlns:svg="http://www.w3.org/2000/svg"><sodipodi:namedview id="namedview1" pagecolor="#ffffff" bordercolor="#cccccc" borderopacity="1" inkscape:showpageshadow="0" inkscape:pageopacity="1" inkscape:pagecheckerboard="0" inkscape:deskcolor="#d1d1d1" inkscape:document-units="px"></sodipodi:namedview><defs id="defs1"></defs><g inkscape:groupmode="layer" id="layer3" inkscape:label="vector_layer 2" style="display: inline" transform="translate(-9.6731,-23.645356)"><path style="fill: #f6b4f8; fill-opacity: 1; stroke: #000; stroke-width: .243531px; display: inline" d="m 88.57513,74.900516 c -2.690252,8.458376 -2.819328,8.681801 -2.819328,8.681801 l -0.964688,2.848706 c 0,0 -4.198421,2.92055 -2.228288,2.776892 1.970134,-0.143686 2.072037,-0.119763 2.072037,-0.119763 0,0 -2.330193,4.500493 -0.441581,2.792851 1.888611,-1.707627 2.30981,-2.361967 2.30981,-2.361967 l 0.713327,2.880648 c 1.120937,-0.175565 0.985066,-1.603905 0.985066,-1.603905 l 0.264949,-1.659766 1.664423,1.212913 c 0,0 1.86823,1.659766 0.461961,-1.851269 -1.406265,-3.511018 4.49734,-12.631692 4.49734,-12.631692 z" id="path23"></path><path style="fill: #fff; fill-opacity: 1; stroke: #000; stroke-width: .243531px; display: inline" d="m 96.193772,64.481731 c -0.10247,-0.02254 -0.203175,-0.06773 -0.307439,-0.06773 -0.160572,0 -1.01308,0.644827 -1.277805,0.789934 -0.534016,0.292716 -1.136502,0.50416 -1.614069,0.91408 -0.75649,0.649325 -1.23469,1.589522 -1.844651,2.403665 -0.436784,0.582999 -0.892206,1.187784 -1.268196,1.828151 -0.420483,0.716144 -0.730828,1.508262 -1.085651,2.268248 -0.306928,0.657416 -0.480378,1.125434 -0.480378,1.873289 0,0.06654 -0.02347,0.222867 0.01921,0.282122 0.203794,0.28289 0.563473,0.445743 0.835857,0.598101 0.140738,0.07871 0.27552,0.198517 0.422734,0.259546 1.150929,0.477128 3.431757,0.380143 4.621231,0.180561 0.243758,-0.0409 0.532089,-7.98e-4 0.758995,-0.04519 0.156924,0.01506 0.31385,0.03013 0.470774,0.04519 0,-0.004 0,-0.0079 0,-0.0113 0.492489,-0.164239 1.003077,-0.0402 1.503887,-0.0794 0.144222,-0.0113 0.285992,-0.05316 0.430287,-0.06314 0.161079,-0.01115 0.324337,0.02683 0.484074,0 0.09558,-0.01606 0.174681,-0.101755 0.26893,-0.126353 0.165642,-0.04319 0.23147,-0.02055 0.376501,-0.06314 0.214907,-0.06314 8.26e-4,-0.06364 0.215145,-0.189538 0.250337,-0.147031 0.448251,-0.101138 0.645429,-0.379076 0.134278,-0.189267 0.188746,-0.412005 0.26893,-0.631778 0.1266,-0.346994 0.27659,-0.757952 0.322715,-1.137216 0.03631,-0.298503 0,-0.647571 0,-0.947669 0,-0.547554 0,-1.095099 0,-1.642642 0,-0.51231 0.05403,-1.071846 0,-1.579458 -0.0069,-0.06603 -0.04576,-0.123609 -0.05378,-0.189538 -0.03813,-0.313564 0.0043,-0.577621 -0.107573,-0.884501 -0.106864,-0.292886 -0.269078,-0.568832 -0.430287,-0.821318 -0.309081,-0.484068 0.09393,0.231357 -0.215145,-0.252712 -0.02405,-0.03772 -0.02544,-0.09308 -0.05378,-0.126353 -0.260629,-0.306134 -0.08833,0.102708 -0.322715,-0.379065 -0.152364,-0.53692 0.06013,0.117723 -0.161357,-0.315889 -0.114496,-0.224144 -0.09925,-0.495642 -0.268931,-0.694966 -0.04572,-0.05367 -0.120971,-0.06704 -0.161356,-0.126353 -0.03542,-0.05199 -0.01372,-0.142439 -0.05378,-0.189527 -0.10116,-0.118839 -0.797203,-0.338913 -0.968148,-0.379075 -0.128265,-0.03013 -0.304647,0.04918 -0.430286,0 -0.268817,-0.105263 -0.172953,-0.237711 -0.539356,-0.119851 z" id="path22"></path></g><g inkscape:groupmode="layer" id="layer2" inkscape:label="vector_layer" style="display: inline" transform="translate(-9.6731,-23.645356)"><path style="fill: #3c3332; fill-opacity: 1; stroke: #000; stroke-width: .243531px; display: inline" d="m 103.11463,117.97882 c -0.006,0.94698 -0.1819,1.87602 -0.30744,2.80994 -0.19671,1.46333 -0.20741,2.26417 -1.08566,3.38543 -0.5886,0.7515 -1.47589,0.45614 -2.238552,0.56425 -0.296358,0.042 -0.573369,0.19277 -0.874288,0.21441 -1.229712,0.0885 -2.55934,-0.26593 -3.295388,-1.52346 -0.282647,-0.48288 -0.555678,-2.02939 -0.653313,-2.65194 -0.138148,-0.88087 -0.07684,-1.81594 -0.07684,-2.70837 0,-0.13033 -0.0461,-0.36787 0.05765,-0.42881" id="path16"></path><path style="fill: #3e3232; fill-opacity: 1; stroke: #000; stroke-width: .243531px; display: inline" d="m 133.01333,114.54821 c -0.0436,1.54768 0.0422,3.13996 -0.43235,4.61551 -0.0649,0.20207 -0.16325,0.30451 -0.24018,0.48526 -0.38158,0.89637 -0.83978,1.5911 -1.46035,2.27954 -0.11856,0.1315 -0.21746,0.2995 -0.34588,0.41753 -0.29277,0.26914 -1.03095,0.55801 -1.38348,0.63195 -0.72665,0.15242 -1.25005,-0.0615 -1.94073,-0.20312 -0.33903,-0.0696 -0.69054,0.003 -1.01839,-0.13547 -0.28698,-0.12123 -0.51688,-0.19851 -0.74939,-0.4514 -0.75104,-0.8168 -1.12442,-2.37318 -1.23938,-3.54342 -0.0455,-0.4634 -0.009,-0.95539 -0.009,-1.42191 0,-0.51533 0,-1.03067 0,-1.546 0,-0.0951 -0.0356,-1.13817 0.0193,-0.88025" id="path15"></path><path style="fill: #f0b6f0; fill-opacity: 1; stroke: #000; stroke-width: .243531px; display: inline" d="m 94.794494,113.29786 c 0,1.18115 0,2.36231 0,3.54346 0,0.42068 -0.0873,1.09519 0.230581,1.42188 0.211473,0.21734 2.178281,0.29341 2.526785,0.29341 1.543988,0 3.08656,-0.079 4.63084,-0.079 0.37413,0 1.12815,-0.34992 1.23937,-0.80122 0.0822,-0.33365 0.13456,-0.6979 0.25941,-1.01564 0.15531,-0.39527 0.35137,-0.81577 0.44194,-1.24133 0.0773,-0.363 0.0577,-0.76713 0.0577,-1.13978 0,-0.0779 0,-0.51121 0,-0.32725" id="path14"></path><path style="fill: #f0b6f0; fill-opacity: 1; stroke: #000; stroke-width: .243531px; display: inline" d="m 123.95341,112.20323 c 0.0546,0.90559 -0.16612,2.60406 0.52841,3.28389 0.36128,0.35363 0.9453,0.19819 1.3931,0.25957 0.56965,0.0779 1.21763,0.11873 1.787,0.0452 0.46711,-0.0603 0.9318,-0.22304 1.40271,-0.28212 0.72686,-0.0913 1.46984,-0.15226 2.20012,-0.19184 0.24099,-0.0132 1.53183,-0.17289 1.60446,-0.42882 0.0429,-0.15111 0.35089,-2.53468 0.23058,-2.64066" id="path13"></path><path style="fill: #6e58ef; fill-opacity: 1; stroke: #000; stroke-width: .243531px" d="m 135.41522,89.057991 c 0.0351,0.03757 0.0692,0.07676 0.10561,0.112865 0.0436,0.04315 0.45891,0.382788 0.48999,0.473976 0.0814,0.239086 0,1.229644 0,1.534733 0,0.787753 0.0786,1.935295 0.19215,2.708356 0.1346,0.916675 0.74656,1.705778 0.80704,2.62938 0.0961,1.467616 -0.23248,2.821735 -0.6053,4.197969 -0.10376,0.38276 -0.005,0.81194 -0.096,1.1962 -0.10778,0.45592 -0.27292,0.91148 -0.34586,1.37674 -0.12027,0.76657 -0.056,1.53357 -0.13445,2.30211 -0.0533,0.52171 -0.25417,0.95535 -0.3843,1.44444 -0.2081,0.78216 -0.39681,1.58392 -0.54763,2.38111 -0.0355,0.18782 -0.21064,0.30043 -0.29783,0.44011 -0.0916,0.14677 -0.0936,0.3361 -0.18256,0.48525 -0.15581,0.26148 -0.33932,0.43778 -0.50918,0.6658 -0.0515,0.0691 -0.0513,0.19691 -0.11533,0.25955 -0.29741,0.2911 -0.69717,0.87374 -1.04723,1.03821 -0.16502,0.0776 -0.45081,0.0757 -0.62448,0.10157 -0.37038,0.0553 -0.75265,0.16281 -1.12409,0.19184 -0.54374,0.0426 -1.07781,0.0382 -1.62367,0.10156 -0.92853,0.10788 -1.85492,0.0766 -2.78619,0.0677 -1.0152,-0.0103 -1.8946,-0.0398 -2.74777,-0.76736 -0.11255,-0.096 -0.25327,-0.16601 -0.32665,-0.3047 -0.082,-0.15495 -0.0769,-0.35359 -0.11533,-0.53039 -0.19368,-0.59678 -0.0547,-1.1984 -0.10561,-1.80557 -0.039,-0.4639 -0.29753,-0.90177 -0.43235,-1.33161 -0.33291,-1.06136 -1.13713,-2.97635 -2.07524,-3.49829 -0.87611,-0.48746 -1.94867,-0.31599 -2.89186,-0.31599 -1.17204,0 -2.36612,-0.0696 -3.53557,0.0117 -0.46816,0.0323 -0.92787,0.28347 -1.3835,0.39496 -0.29817,0.0728 -0.60302,0.12959 -0.90311,0.19185 -0.44656,0.0925 -0.91498,-0.0148 -1.36427,0.0565 -0.34857,0.0555 -0.67643,0.15107 -1.02801,0.18055 -0.42496,0.0357 -1.66572,0.0911 -1.95033,0.39497 -0.68927,0.73602 -0.83162,1.91248 -0.99918,2.92278 -0.10201,0.61505 -0.39519,1.11074 -0.58607,1.68144 -0.10015,0.29948 -0.12865,0.64437 -0.24018,0.93665 -0.0762,0.19962 -0.17943,0.35522 -0.24019,0.56422 -0.32908,1.13197 -0.2414,1.13541 -0.96076,1.89586 -0.17114,0.18092 -0.0369,0.14457 -0.32665,0.32727 -0.88628,0.55905 -1.95185,0.4676 -2.9207,0.55295 -2.326607,0.20496 -4.269839,0.0828 -6.379411,-1.06076 -0.594928,-0.32254 -0.724337,-0.47302 -1.008793,-1.25263 -0.101715,-0.27876 -0.283304,-0.52405 -0.336264,-0.83507 -0.13989,-0.82158 0.136082,-1.71731 -0.04803,-2.5391 -0.228028,-1.0178 -0.52265,-2.0245 -0.768604,-3.03562 -0.09262,-0.38075 -0.0924,-0.78491 -0.144115,-1.17361 -0.224333,-1.68638 -0.272472,-3.52165 0.03844,-5.191042 0.327662,-1.759378 0.15372,-3.546407 0.15372,-5.337721 0,-0.540081 0.02387,-1.037627 0.15372,-1.546035 0.0515,-0.201602 0.403292,-0.810648 0.336265,-0.259546" id="path12"></path><path style="fill: #f6b4f8; fill-opacity: 1; stroke: #000; stroke-width: .240099px; display: inline" d="m 138.27162,71.142473 c 3.95178,8.809051 4.10347,9.026441 4.10347,9.026441 l 1.37873,2.95137 c 0,0 4.02974,2.180618 2.39384,2.537795 -1.63588,0.357228 -1.71395,0.410989 -1.71395,0.410989 0,0 2.83531,4.450404 0.94066,3.026305 -1.89461,-1.424116 -2.37402,-2.049439 -2.37402,-2.049439 l 0.0176,3.42917 c -0.95027,0.0976 -1.13651,-1.545301 -1.13651,-1.545301 l -0.5611,-1.797819 -1.1046,1.803088 c 0,0 -1.17785,2.359574 -0.76152,-1.961433 0.41632,-4.320984 -6.29265,-13.029032 -6.29265,-13.029032 z" id="path100"></path><path style="fill: #fff; fill-opacity: 1; stroke: #000; stroke-width: .243531px; display: inline" d="m 131.35122,61.588439 c 0.71727,0.153506 1.42627,0.351434 2.13287,0.564244 0.59777,0.18003 1.72739,1.241083 2.1521,1.805575 0.41727,0.554607 0.77753,1.149217 1.24897,1.647582 0.62628,0.662044 1.42906,1.276497 1.9023,2.110272 0.17931,0.315918 0.2793,1.926261 0.19215,2.369819 -0.0532,0.271038 -0.25156,0.993107 -0.3843,1.207473 -0.14539,0.234907 -0.3923,0.393561 -0.58606,0.564245 -0.29013,0.255586 -0.57612,0.547324 -0.89351,0.756086 -0.31112,0.204651 -0.64622,0.377908 -0.92232,0.643239 -0.67103,0.644869 -1.27919,1.521959 -2.08483,1.963561 -0.23591,0.129304 -0.57823,0.210317 -0.83587,0.270839 -0.22913,0.05386 -0.41564,-0.06763 -0.63409,0.09028 -0.39321,-0.299521 -0.88373,-0.191672 -1.29258,-0.383775 -0.0526,-0.02475 -0.10145,-0.05956 -0.15217,-0.08938 -0.076,-0.05956 -0.14416,-0.136392 -0.22819,-0.178703 -0.25182,-0.126764 -0.70627,-0.114817 -0.91278,-0.35739 -0.0179,-0.02105 0.008,-0.06105 0,-0.08938 -0.0288,-0.101872 -0.12998,-0.163869 -0.15218,-0.268045 -0.0868,-0.407476 -0.0435,-0.830874 -0.0762,-1.250869 -0.0139,-0.180419 -0.0621,-0.355673 -0.076,-0.536091 -0.0499,-0.644827 0.078,-1.324948 0,-1.965646 -0.0108,-0.09327 -0.0603,-0.175691 -0.0762,-0.268047 -0.0828,-0.486452 0.0695,-1.029578 0,-1.518914 -0.0123,-0.09288 -0.0648,-0.174803 -0.0762,-0.268035 -0.0526,-0.432047 -3.6e-4,-0.806184 -0.0762,-1.250879 -0.0199,-0.116814 0.0247,-0.24181 0,-0.357389 -0.0597,-0.279926 -0.35348,-1.524171 -0.30426,-1.697608 0.10238,-0.360901 0.59948,-0.314862 0.68458,-0.714777 0.0788,-0.369728 -0.12905,-1.215883 0,-1.518914 0.0919,-0.215963 0.52648,-0.116799 0.68459,-0.178694 0.0699,-0.02733 0.28644,-0.157775 0.30425,-0.178694 0.0179,-0.02105 -0.0179,-0.06834 0,-0.08938 0.0179,-0.02105 0.0581,0.02105 0.0762,0 0.003,-0.0029 0.049,-0.236234 0.076,-0.268046 0.003,-0.0029 0.2011,-0.05756 0.22819,-0.08938 0.0973,-0.11426 0.0483,-0.318445 0.0813,-0.475322 z" id="path17"></path><path style="fill: #fff; fill-opacity: 1; stroke: #000; stroke-width: .243531px; display: inline" d="m 96.129943,64.375796 c 0.137701,0.157984 0.288203,0.301933 0.413122,0.473963 0.323678,0.445733 -0.654572,2.924338 -0.401188,3.434544 0.42926,0.864339 -0.516124,2.249192 -0.36282,3.194547 0.147075,0.906905 -0.540849,1.9838 -0.446775,2.899266 0.03862,0.375843 -0.114805,1.576255 -0.17015,1.966244 -0.04283,0.301793 -0.09458,1.505657 -0.304,1.888283 -0.148169,0.27073 -0.359699,1.768455 -0.41392,2.08689 -0.114188,0.670603 -0.233553,1.530466 -0.360911,2.166225 -0.0435,0.21714 -0.03995,1.187892 -0.116686,1.368143 -0.129282,0.303683 0.176159,0.335243 0.03446,0.612642 -0.215234,0.42135 -0.02484,0.477884 -0.221969,0.907902 -0.119106,0.259804 0.165358,0.01174 -0.05222,0.140076 -0.06081,0.03566 0.01553,0.687453 -0.04983,0.726261 -0.05418,0.03189 0.129329,0.673502 0.05506,0.717113 -0.23199,0.136246 0.142218,0.863954 -0.01678,1.144059 -0.35236,0.620802 -0.08108,1.083374 -0.178505,1.808148 -0.04158,0.309286 0.101298,0.56418 0.01762,0.859038 -0.416269,1.466838 -0.196326,-0.706604 -0.196326,0.849279 0,0.229311 0.291298,0.289619 0.408346,0.472933 0.598144,0.936753 1.811837,0.937736 2.709329,0.823785 0.293758,-0.03743 0.549988,-0.307907 0.835856,-0.39497 0.634641,-0.193251 1.272678,-0.321424 1.93112,-0.259546 0.325194,0.03053 0.622899,0.259208 0.941544,0.32725 0.15688,0.03361 0.3409,0.0059 0.49959,0.0339 0.65623,0.110077 1.30296,0.340196 1.96955,0.383683 0.351,0.0229 0.7067,-0.03361 1.05683,0.01174 0.48598,0.06223 0.97121,0.158011 1.46035,0.169283 0.83203,0.01908 1.72813,0.01027 2.546,-0.169283 0.80672,-0.177649 1.57538,-0.507806 2.40188,-0.507806 0.32325,0 0.55637,0.242859 0.85507,0.338552 0.39614,0.126955 0.8676,0.07896 1.27781,0.07896 0.0253,0 0.57294,0.06267 0.57645,0.0339 0.0108,-0.08836 -0.009,-0.899781 0,-0.90279 1.11186,-0.373131 2.22623,-0.282119 3.36265,-0.282119 0.56089,0 1.10395,0.02407 1.66209,0.06781 0.57366,0.04491 1.15668,-0.05768 1.72936,0 0.32553,0.03273 0.72489,0.08337 1.02802,0.225687 0.16704,0.07852 1.64049,0.04653 1.88308,0.07896 0.45928,0.06135 0.88658,0.272697 1.34506,0.293406 0.21962,0.01027 0.43316,0.02246 0.6533,0.02246 0.0589,0 -0.0163,0.0059 -0.0288,0.05651 -0.006,0.02539 -0.0285,0.29386 0.0193,0.248259 0.20977,-0.200178 0.33612,-0.478863 0.55725,-0.677089 0.99069,-0.888054 1.85466,-0.936635 3.02638,-0.936635 0.34584,0 0.73485,0.06414 1.07604,0 0.13522,-0.02539 0.28177,-0.11448 0.41313,-0.157997 0.43423,-0.143833 0.89583,-0.259238 1.34505,-0.315978 0.49292,-0.06223 1.02226,0.06516 1.49878,-0.112866 0.2706,-0.101124 0.45627,-0.260867 0.71096,-0.39497 0.34292,-0.180555 0.72118,-0.210936 1.06644,-0.417528 0.24772,-0.148236 0.0248,-0.09819 0.11533,-0.225701 0.017,-0.02392 0.269,-0.231572 0.269,-0.180555 0,0.196993 1.07712,0.336042 1.09527,0.293391 0.14138,-0.332123 -0.25241,-1.311013 -0.28823,-1.647578 -0.0658,-0.61849 0.21145,-1.172638 0.16333,-1.794291 -0.02,-0.258724 -0.16062,-0.368006 -0.23059,-0.598098 -0.12041,-0.396077 -0.18975,-0.825977 -0.30744,-1.230044 -0.15769,-0.541453 -0.0765,-1.127193 -0.23058,-1.67016 -0.16659,-0.587056 -0.43088,-1.130003 -0.60527,-1.715294 -0.0919,-0.308558 -0.12659,-0.669607 -0.24979,-0.959211 -0.18898,-0.443926 -0.3769,-0.812887 -0.47078,-1.309047 -0.0265,-0.140472 -0.13861,-0.264474 -0.15372,-0.406249 -0.0588,-0.551874 -0.19625,-0.755188 -0.28822,-1.241342 -0.0433,-0.228703 -0.0359,-0.459199 -0.0577,-0.688371 -0.0691,-0.730108 -0.033,-1.577103 0,-2.313395 0.0123,-0.280487 0.0564,-0.6276 0.009,-0.902788 -0.0177,-0.104411 -0.42199,-1.462414 -0.46118,-1.534736 -0.24231,-0.447281 -0.61617,-0.798612 -0.6533,-1.36547 -0.0731,-1.117374 0.45043,-1.991552 0.48037,-3.046907 0.008,-0.242359 0.0315,-0.54945 0,-0.789944 -0.0307,-0.234457 -0.15141,-0.496948 -0.20176,-0.73351 -0.0907,-0.426259 -0.12983,-0.86504 -0.24019,-1.286472 -0.0793,-0.302392 -0.24839,-0.571406 -0.34586,-0.857647 -0.0808,-0.237372 -0.037,-1.60755 -0.0865,-1.670157 -0.14339,-0.181337 -0.94943,-2.205718 -1.13435,-2.314314 0.0256,0.206905 -0.28021,0.166653 -0.26543,0.375015 0.002,0.01984 0.64166,-0.03182 0.0848,-0.1552 -0.2978,0.599636 0.30185,0.120629 -0.29857,0.269093 -0.0387,0.01 0.10623,0.170145 -0.16373,0.380152 -0.0703,-0.0413 -0.11579,0.153735 -0.17273,0.08678 -0.15481,-0.181846 0.14185,0.18868 -0.0643,0.210686 -0.15187,0.01626 -0.67792,0.71695 -0.87589,0.833208 -0.0837,0.04918 -0.39373,0.526925 -0.62488,0.671751 -0.50048,0.313516 -0.5783,0.564912 -1.09865,0.848679 -0.23412,0.127689 -0.7124,0.626182 -0.95877,0.728863 -0.26501,0.110459 -0.85335,0.61065 -1.10128,0.764345 -0.238,0.147541 -0.76598,0.560742 -0.93094,0.599498 -0.34637,0.0814 -1.00291,0.627039 -1.43695,0.818432 -0.62918,0.277434 -1.72705,0.293864 -2.20775,0.817278 -0.27387,0.02215 -0.41877,0.262061 -0.69294,0.313135 -0.29998,0.05567 -0.59528,0.02753 -0.8933,0.09238 -0.37852,0.08231 -0.72522,0.186096 -1.10508,0.271527 -0.30445,0.06853 -0.72174,0.118707 -1.02701,0.146255 -0.75488,0.06823 -1.40775,0.200222 -2.15309,0.09926 -0.75187,-0.101902 -1.52958,-0.101564 -2.28659,-0.101564 -0.57606,0 -1.31681,-0.201349 -1.8911,-0.156359 -0.33394,0.02614 -0.63269,-0.433783 -0.97075,-0.411726 -0.69763,0.04548 -1.26485,-0.457803 -1.95173,-0.58192 -0.93525,-0.169007 -1.93991,-0.702866 -2.81421,-1.136738 -1.13803,-0.564753 -1.60259,-1.264614 -2.73253,-1.905622 -0.15345,-0.04209 -1.58668,-1.318203 -1.735246,-1.386068 -1.173875,-0.536201 0.673716,-0.246319 -0.568654,-0.553539 -0.236727,-0.05856 -2.591533,2.5986 -2.842364,2.701379 -0.132011,0.05407 -0.262606,0.112851 -0.393909,0.169267 z" id="path3" sodipodi:nodetypes="csssssssssssscssssscsssscccscsssscsscsccssssssssssssssssssssssssssssssssssscccccscscssssscccccsssssscssscc"></path><path style="fill: #fff; fill-opacity: 1; stroke: #000; stroke-width: .243531px; display: inline" d="m 102.99934,67.456561 c -0.016,0.146696 -0.0457,0.292227 -0.048,0.440107 -0.003,0.185686 0.18598,0.468726 0.24019,0.564243 0.6808,1.199473 1.85172,1.749811 2.88226,2.426241 0.63128,0.41436 1.30302,0.744715 1.91191,1.207484 0.6099,0.463539 1.18648,1.029967 1.81582,1.433175 0.56686,0.363174 1.30016,0.247177 1.91192,0.349827 0.35073,0.05885 0.78301,0.18432 1.14328,0.09028 0.10299,-0.02683 0.1905,-0.169586 0.26901,-0.236982 0.18649,-0.160071 0.40427,-0.275549 0.59567,-0.428825 0.23424,-0.187583 0.42518,-0.465544 0.62449,-0.699662 0.42689,-0.501407 0.94431,-0.888026 1.27781,-1.489598 0.24976,-0.45051 0.35425,-0.976227 0.54762,-1.455748 0.0598,-0.148427 0.17926,-0.229291 0.25941,-0.361109 0.0985,-0.161994 0.1161,-0.362007 0.23059,-0.496538 0.0321,-0.03772 0.43652,-0.234528 0.29783,-0.31597 -1.28021,-0.751866 -2.73486,-0.03383 -4.08321,-0.03383 -1.31943,0 -2.63888,0 -3.95831,0 -0.64048,0 -1.30348,0.05985 -1.94073,0 -0.52607,-0.04948 -1.0374,-0.29089 -1.55642,-0.394977 -0.82826,-0.166094 -1.61591,-0.307091 -2.4211,-0.598091 z" id="path1" inkscape:label="path1"></path><path style="fill: none; stroke: #000; stroke-width: .243531px; display: inline" d="m 117.02636,68.494768 c -0.12643,1.696292 0.009,3.377342 0.009,5.078184 0,0.457323 -0.11595,1.279967 0.0384,1.715294 0.11841,0.333965 0.37843,0.646772 0.53802,0.95921 0.0609,0.119176 0.0829,0.273533 0.11533,0.406259 0.0472,0.194226 0.19199,0.383106 0.2402,0.552952 0.1785,0.628985 0.51921,1.594101 0.60528,2.200552 0.0612,0.430938 -0.0302,0.895893 0,1.331612 0.0308,0.443566 0.23332,0.830364 0.24979,1.275178 0.0521,1.406459 -0.16148,2.839553 0,4.243103 0.0944,0.82072 0.23798,1.6316 0.21137,2.460096 -0.0123,0.378238 -0.15918,0.800595 -0.0865,1.18491 0.0458,0.24208 0.12489,0.290015 0.12489,0.586826 0,0.149058 0.0712,1.083345 -0.12489,1.083345" id="path4"></path><path style="fill: #fff; fill-opacity: 1; stroke: #000; stroke-width: .243531px; display: inline" d="m 117.52596,68.585048 c 0.42024,0.982163 0.7645,2.106661 1.5372,2.78735 0.39992,0.352301 0.92867,0.573622 1.37388,0.835083 0.326,0.191453 0.32393,0.70954 0.78782,0.564243 0.17594,-0.05507 0.33458,-0.169106 0.49959,-0.259556 0.36943,-0.202496 0.74703,-0.412283 1.07605,-0.699654 0.37988,-0.33179 0.67261,-0.7867 1.03761,-1.139769 0.17942,-0.173556 0.38125,-0.294203 0.55725,-0.473964 0.41778,-0.426729 0.80273,-0.892522 1.21055,-1.331611 0.34698,-0.373609 0.67706,-0.778811 1.05683,-1.105923 0.55923,-0.481694 1.14483,-0.898418 1.67171,-1.444455 0.16581,-0.171843 0.42796,-0.37389 0.53802,-0.620667 0.23022,-0.516251 0.23123,-1.093713 0.54763,-1.568593 0.14323,-0.214966 0.27353,-0.461344 0.42273,-0.665806 0.0547,-0.07512 0.11148,-0.136129 0.16333,-0.214417 0.008,-0.01071 0.0404,-0.02254 0.0288,-0.02254 -0.28869,0 -0.5761,-0.03043 -0.86467,0.02254 -0.35192,0.06464 -1.09883,0.519244 -1.42192,0.767377 -0.31965,0.245483 -0.57692,0.589643 -0.90311,0.823792 -0.55925,0.401431 -1.12463,0.771578 -1.66211,1.218756 -0.62817,0.522635 -1.23474,1.16429 -1.97915,1.455749 -1.23701,0.484319 -2.5423,0.752903 -3.84302,0.880222 -0.62922,0.06154 -1.24302,-0.08269 -1.83504,0.191843 z" id="path2"></path><path style="fill: #000; fill-opacity: 1; stroke: #000; stroke-width: .243531px; display: inline" d="m 120.90782,87.52102 c -0.0335,0.03097 -0.30134,0.222635 -0.36509,0.37239 -0.48529,1.140027 0.73272,1.253464 0.80702,0.293421 0.0372,-0.480812 -0.0108,-0.465664 -0.44193,-0.665811 z" id="path5"></path><path style="fill: #000; fill-opacity: 1; stroke: #000; stroke-width: .243531px; display: inline" d="m 120.02392,81.51748 c -0.0897,0.124137 -0.19151,0.237431 -0.26902,0.372402 -0.23974,0.417531 0.39949,0.911886 0.71097,0.789933 0.0863,-0.03383 0.218,-0.985256 0.15372,-1.060773 -0.16462,-0.193347 -0.37837,-0.113159 -0.59567,-0.101564 z" id="path6"></path><path style="fill: #000; fill-opacity: 1; stroke: #000; stroke-width: .243531px; display: inline" d="m 119.30335,74.836846 c -0.10254,-0.02254 -0.28822,-0.18808 -0.30744,-0.06773 -0.0193,0.120366 0.33041,-0.05177 0.30744,0.06773 -0.0729,0.379056 -0.56437,0.502395 -0.43233,0.936646 0.0307,0.100903 0.1403,0.164858 0.20175,0.236983 0.59152,0.694794 0.91398,-0.23401 0.74939,-0.620667 -0.10439,-0.245331 -0.34454,-0.370387 -0.51881,-0.552962 z" id="path7"></path><path style="fill: #fefe8a; fill-opacity: 1; stroke: #000; stroke-width: .243531px; display: inline" d="m 111.59809,92.883581 c -0.0734,1.35594 -0.42325,2.651352 -0.66291,3.972272 -0.009,0.04887 -0.13259,0.713179 -0.0481,0.812498 0.18237,0.214224 0.51307,0.343439 0.73977,0.473975 1.05451,0.607154 1.9283,0.66046 3.10323,0.677089 1.16509,0.01644 2.34166,-0.02715 3.49716,-0.225701 0.6682,-0.11492 1.30684,-0.371281 1.95994,-0.552952 0.32282,-0.08982 0.67044,-0.08322 0.99918,-0.112865 0.53698,-0.04858 1.07079,-0.147341 1.60446,-0.225701 0.27715,-0.04066 0.90038,0.0029 1.09527,-0.225687 0.095,-0.111691 0.18274,-0.259795 0.269,-0.361125 0.0342,-0.04036 -0.0108,-1.481456 0,-1.636297 0.0492,-0.750884 0.2306,-1.520467 0.2306,-2.279541 0,-0.278729 0.0205,-1.064383 0.009,-1.072059 -0.19083,-0.134441 -1.03125,0.01027 -1.30664,-0.01174 -0.19106,-0.01497 -0.37577,-0.08116 -0.56684,-0.101564 -0.27273,-0.02921 -0.55257,0.01497 -0.82625,0 -0.50302,-0.02745 -0.9936,-0.06766 -1.49878,-0.06766 -0.63088,0 -1.33266,-0.09716 -1.95994,0 -0.38764,0.06018 -0.76758,0.203421 -1.1529,0.282119 -0.75358,0.153931 -1.51796,0.227169 -2.27699,0.304707 -0.50716,0.05181 -1.02796,-0.01027 -1.53721,0.02245 -0.25269,0.01644 -0.48397,0.14991 -0.72058,0.225702 -0.29734,0.09525 -0.6478,0.101564 -0.95113,0.101564 z" id="path9"></path><path style="fill: #353535; fill-opacity: 1; stroke: #000; stroke-width: .243531px; display: inline" d="m 124.22241,93.08671 c 0.81586,0.06061 1.64121,0.14354 2.44993,-0.05651 0.6297,-0.155708 1.23649,-0.454221 1.87348,-0.598084 0.67305,-0.152038 1.64436,-0.254791 2.22894,-0.598112 0.41949,-0.246367 0.88592,-0.492073 1.31623,-0.744794 0.20548,-0.120644 0.37409,-0.225129 0.56685,-0.406256 0.0159,-0.01497 0.21021,-0.190022 0.21137,-0.180555 0.0964,0.792155 0.0484,1.926635 -0.0384,2.742215 -0.0207,0.194146 -0.11764,0.369652 -0.15372,0.552952 -0.0123,0.06473 -0.003,0.240657 -0.0481,0.293406 -0.006,0.0059 -1.74561,0.339917 -1.95994,0.383698 -1.26206,0.257799 -2.52859,0.554097 -3.75655,0.993068 -0.33228,0.118883 -0.65004,0.327881 -0.97997,0.462659 -0.35911,0.146769 -1.70143,0.476075 -1.83504,0.78994" id="path11"></path><path style="fill: #353535; fill-opacity: 1; stroke: #000; stroke-width: .243531px; display: inline" d="m 110.95439,96.257755 c -0.32208,-0.04858 -0.32865,-0.112425 -0.58606,0.02245 -0.53101,0.278436 -0.97679,0.787049 -1.54681,0.959209 -1.31952,0.398536 -2.69768,-0.05064 -3.99674,-0.293406 -1.2432,-0.232306 -2.64736,-0.473961 -3.90067,-0.473961 -0.58487,0 -1.198125,0.111398 -1.729358,0.39497 -0.02381,0.01321 -0.371783,0.219801 -0.403518,0.191842 -0.07941,-0.06986 -0.256598,-0.680685 -0.259402,-0.688376 -0.270956,-0.742592 -0.384086,-1.187962 -0.326658,-1.997422 0.02109,-0.297295 0.09226,-0.575026 0.124903,-0.868931 0.0037,-0.03361 -0.02422,-0.242374 0,-0.270833 0.06753,-0.07925 1.016486,0.09892 1.10487,0.101564 1.295313,0.03992 2.662653,0.01321 3.958313,-0.03376 0.72877,-0.02671 1.46054,-0.115361 2.19052,-0.06766 0.52005,0.0339 1.25553,0.233965 1.75818,0.394985 0.52127,0.166993 0.95805,-0.03933 1.47956,-0.112866 0.65342,-0.09217 1.3211,-0.07896 1.97915,-0.07896 0.1437,0 0.74215,-0.107142 0.65332,0.101564" id="path10"></path><path style="fill: none; stroke: #000; stroke-width: .243531px; display: inline" d="m 115.04721,79.994027 c -0.10562,0.01886 -0.33307,-0.06773 -0.31705,0.05648 0.016,0.124137 0.21021,-0.05218 0.31705,-0.05648 0.17936,-0.007 0.35864,0.02883 0.53802,0.02254 0.18742,-0.007 0.3349,-0.249661 0.48037,-0.349827 0.24316,-0.167431 0.61016,-0.235595 0.8839,-0.315979 0.43245,-0.126984 1.13887,-0.132062 1.56603,0.0113 0.24918,0.08358 0.53923,0.186835 0.79742,0.214408 0.4327,0.04619 0.85868,0.06773 1.29703,0.06773 0.008,0 0.3148,0.01924 0.32665,-0.02254 0.0221,-0.07801 0,-0.220312 0,-0.304687" id="path8"></path>&#10;       <!-- Left Eye Background -->&#10;          &#10;          <!-- Right Eye Background -->&#10;          &#10;          <!-- Left Eye -->&#10;          &#10;          <!-- Right Eye -->&#10;          &#10;          <!-- Mouth (top line) -->&#10;          &#10;          <!-- Mouth (bottom line) -->&#10;          </g></svg>
